<?xml version="1.0" encoding="utf-8"?>
<!-- Generator: Adobe Illustrator 26.3.1, SVG Export Plug-In . SVG Version: 6.00 Build 0)  -->
<svg version="1.1" id="Layer_1" xmlns="http://www.w3.org/2000/svg" xmlns:xlink="http://www.w3.org/1999/xlink" x="0px" y="0px"
	 viewBox="0 0 90 321" style="enable-background:new 0 0 90 321;" xml:space="preserve">
<path d="M90.14,121.56v-11.01h-4.88c-0.38,0-0.73-0.24-0.86-0.6L45.95,4.9c-0.16-0.44-0.78-0.44-0.94,0L6.67,109.68
	c-0.19,0.53-0.7,0.88-1.26,0.88H0.14v11.01c0.07,0,0.14-0.01,0.21-0.01c17.03,0,30.83,13.81,30.83,30.83s-13.81,30.83-30.83,30.83
	c-0.07,0-0.14,0-0.21-0.01v21.16c0.07,0,0.14-0.01,0.21-0.01c17.03,0,30.83,13.81,30.83,30.83s-13.81,30.83-30.83,30.83
	c-0.07,0-0.14,0-0.21-0.01v58.58h90v-58.58c-16.93-0.12-30.61-13.87-30.61-30.83s13.69-30.71,30.61-30.83v-21.16
	c-16.93-0.12-30.61-13.87-30.61-30.83C59.53,135.44,73.21,121.68,90.14,121.56z"/>
</svg>
